<?xml version="1.0" encoding="UTF-8" standalone="no"?>
<svg
   width="6.0104165in"
   height="5.6516538in"
   viewBox="0 0 152.66457 143.552"
   version="1.1"
   id="svg16"
   inkscape:version="1.3.2 (091e20e, 2023-11-25, custom)"
   xml:space="preserve"
   sodipodi:docname="logo.svg"
   xmlns:inkscape="http://www.inkscape.org/namespaces/inkscape"
   xmlns:sodipodi="http://sodipodi.sourceforge.net/DTD/sodipodi-0.dtd"
   xmlns="http://www.w3.org/2000/svg"
   xmlns:svg="http://www.w3.org/2000/svg"
   xmlns:rdf="http://www.w3.org/1999/02/22-rdf-syntax-ns#"
   xmlns:cc="http://creativecommons.org/ns#"
   xmlns:dc="http://purl.org/dc/elements/1.1/"><defs
     id="defs10" /><sodipodi:namedview
     id="base"
     pagecolor="#ffffff"
     bordercolor="#666666"
     borderopacity="1.0"
     inkscape:pageopacity="0.0"
     inkscape:pageshadow="2"
     inkscape:zoom="0.80035842"
     inkscape:cx="67.469772"
     inkscape:cy="299.24093"
     inkscape:document-units="mm"
     inkscape:current-layer="layer1"
     inkscape:document-rotation="0"
     showgrid="false"
     units="in"
     inkscape:showpageshadow="2"
     inkscape:pagecheckerboard="0"
     inkscape:deskcolor="#d1d1d1"
     inkscape:window-width="1920"
     inkscape:window-height="1137"
     inkscape:window-x="-8"
     inkscape:window-y="-8"
     inkscape:window-maximized="1" /><metadata
     id="metadata13"><rdf:RDF><cc:Work
         rdf:about=""><dc:format>image/svg+xml</dc:format><dc:type
           rdf:resource="http://purl.org/dc/dcmitype/StillImage" /></cc:Work></rdf:RDF></metadata><g
     inkscape:label="Layer 1"
     inkscape:groupmode="layer"
     id="layer1"><path
       style="fill:#3182ce;fill-opacity:1"
       d="M 36.71094,122.80425 0,102.13311 V 88.790122 c 0,-12.58324 0.0264,-13.335218 0.46302,-13.206449 0.25467,0.0751 7.90443,3.459683 16.99948,7.5213 9.09506,4.061616 25.43638,11.352041 36.31407,16.200945 l 19.777601,8.816182 v 17.69234 c 0,9.73078 -0.02977,17.68527 -0.06615,17.67664 -0.03638,-0.009 -16.586071,-9.3177 -36.777081,-20.68683 z m 42.399481,3.04709 V 108.15066 L 102.19531,97.865902 c 12.6967,-5.656621 29.17552,-13.001031 36.61961,-16.32091 7.44409,-3.31988 13.60557,-6.036145 13.69218,-6.036145 0.0866,0 0.15748,6.000481 0.15748,13.334403 v 13.3344 l -35.6526,20.05738 C 97.403054,133.2666 80.853363,142.57583 80.2349,142.92222 l -1.124479,0.62979 z M 113.10937,83.90943 c -1.16416,-0.588934 -3.97809,-1.818217 -6.25318,-2.731741 -8.909196,-3.577352 -17.342863,-5.800135 -27.216603,-7.17323 -5.832141,-0.811048 -17.551477,-0.647981 -23.415627,0.325814 -1.22168,0.202872 2.76487,-1.790363 5.55625,-2.778069 4.0942,-1.448692 10.21721,-2.638215 13.655032,-2.652775 l 1.219614,-0.0052 1.492366,-4.175053 c 0.820801,-2.296279 1.492365,-4.279716 1.492365,-4.407637 0,-0.337428 -10.117767,0.03378 -14.022917,0.514477 -10.33614,1.272321 -20.1832,3.950098 -30.40215,8.267465 -4.31181,1.82168 -12.00705,5.649307 -15.96549,7.941262 L 16.93451,78.374861 11.2519,75.832887 C 8.12647,74.434801 5.59612,73.267635 5.62892,73.239184 5.68902,73.187044 69.48438,48.464151 73.993676,46.745491 l 2.423881,-0.92383 4.239466,1.649905 4.239465,1.649906 1.087798,-0.931114 c 2.309878,-1.97717 5.911153,-3.360182 8.773448,-3.369301 0.67513,-0.0022 2.29534,0.273436 3.60045,0.612416 l 2.372916,0.616326 3.51496,-9.810597 c 1.93323,-5.395829 3.72905,-10.36275 3.99073,-11.037603 l 0.47577,-1.227004 -1.53588,-0.56001 c -2.00505,-0.731078 -3.77184,-2.311248 -4.70193,-4.205286 -0.65689,-1.337689 -0.73914,-1.786391 -0.71369,-3.893195 0.0279,-2.312308 0.0978,-2.568926 2.41264,-8.863542 1.31113,-3.56526 2.48881,-6.46888196 2.61707,-6.452492960714 C 107.97366,0.15122604 132.82083,7.131621 132.82083,7.312779 c 0,0.453469 -4.30036,12.237684 -4.89996,13.427283 -0.84843,1.683292 -2.87928,3.586718 -4.88353,4.577126 -1.52268,0.752438 -1.96507,0.846833 -3.96875,0.846833 -1.24028,0 -2.5516,-0.05953 -2.91405,-0.132292 -0.647,-0.129884 -0.72998,0.06511 -4.55974,10.715625 -2.14542,5.966354 -3.90269,10.928765 -3.90507,11.02758 -0.002,0.09882 0.6803,0.372405 1.51704,0.607978 3.52463,0.992307 5.28687,2.040606 6.93464,4.125184 1.92316,2.432984 2.79971,6.1978 2.15444,9.253383 -0.16774,0.794315 -1.61818,5.106231 -3.2232,9.582036 -1.67459,4.669824 -2.83245,8.277966 -2.71696,8.466667 0.11069,0.180862 0.6099,0.86462 1.10936,1.519464 0.81908,1.07388 2.01601,3.41222 1.83379,3.582508 -0.04,0.03742 -1.0253,-0.413825 -2.18947,-1.002758 z m 7.97393,-65.632948 c 0.65282,-0.668407 2.58399,-5.752738 2.28214,-6.008345 -0.41355,-0.350194 -12.33636,-3.443043 -12.50648,-3.244259 -0.38852,0.453967 -1.85063,5.031049 -1.85063,5.793329 0,0.477365 0.21844,1.01147 0.52837,1.291961 0.68031,0.615671 9.44168,3.062831 10.31955,2.882377 0.3638,-0.07478 0.91597,-0.396561 1.22705,-0.715063 z m 11.45332,58.2216 c -1.80822,-1.019487 -5.45257,-2.91308 -8.09857,-4.207985 l -4.81091,-2.354372 1.10674,-3.164943 c 0.60871,-1.740718 1.20193,-3.165672 1.31827,-3.166564 0.21748,-0.0017 24.85349,9.497077 24.99267,9.636259 0.0426,0.04263 -1.14603,0.623126 -2.64147,1.28999 -1.49543,0.666864 -4.0375,1.799448 -5.64902,2.516853 l -2.93005,1.304374 z"
       id="path1" /></g></svg>
