<?xml version="1.0" encoding="UTF-8" standalone="no"?>
<svg
   version="1.1"
   id="svg2"
   sodipodi:docname="vincent.svg"
   width="200"
   height="50"
   inkscape:version="1.2.1 (9c6d41e410, 2022-07-14)"
   viewBox="0 0 5.2916666 1.3229167"
   xmlns:inkscape="http://www.inkscape.org/namespaces/inkscape"
   xmlns:sodipodi="http://sodipodi.sourceforge.net/DTD/sodipodi-0.dtd"
   xmlns="http://www.w3.org/2000/svg"
   xmlns:svg="http://www.w3.org/2000/svg">
  <defs
     id="defs6" />
  <sodipodi:namedview
     id="namedview4"
     pagecolor="#505050"
     bordercolor="#ffffff"
     borderopacity="1"
     inkscape:showpageshadow="0"
     inkscape:pageopacity="0"
     inkscape:pagecheckerboard="1"
     inkscape:deskcolor="#151515"
     showgrid="false"
     inkscape:zoom="4.7661051"
     inkscape:cx="99.557183"
     inkscape:cy="20.247141"
     inkscape:window-width="1920"
     inkscape:window-height="991"
     inkscape:window-x="-9"
     inkscape:window-y="-9"
     inkscape:window-maximized="1"
     inkscape:current-layer="svg2"
     inkscape:document-units="px">
    <inkscape:grid
       type="xygrid"
       id="grid184"
       originx="4.5832849"
       originy="3.4395838"
       units="px"
       spacingx="0.26458333"
       spacingy="0.13229167"
       empspacing="1" />
  </sodipodi:namedview>
  <path
     d="m 0.22189927,0.26458609 h 0.4639068 v 0.021009 h -0.056782 q -0.038612,0 -0.060756,0.015899 -0.022145,0.015899 -0.022145,0.044858 0,0.027255 0.016467,0.064731 l 0.2163384,0.4746953 0.1817016,-0.4093963 q 0.021577,-0.047129 0.021577,-0.081198 0,-0.048832 -0.030662,-0.077791 -0.030094,-0.028959 -0.084037,-0.031798 v -0.021009 H 1.1871893 v 0.021009 q -0.045425,0.00511 -0.081198,0.026687 -0.035772,0.021009 -0.065299,0.061324 -0.029526,0.039747 -0.059621,0.1061818 l -0.2634673,0.59336921 -0.019874,0.00114 -0.3071892,-0.67002451 q -0.05451,-0.1186738 -0.1408187,-0.1186738 h -0.027823 z"
     id="path393"
     style="font-size:1.16289px;font-family:'Engravers MT';-inkscape-font-specification:'Engravers MT';text-align:end;text-anchor:end;fill:#093d00;fill-opacity:1;stroke-width:0.00181701;paint-order:markers fill stroke" />
  <path
     d="m 1.2791753,1.0356821 h 0.022145 q 0.073249,0 0.1084532,-0.035205 0.035772,-0.035772 0.035772,-0.10902101 0,-0.033501 0,-0.060189 0,-0.026687 0,-0.051104 0,-0.024416 0,-0.073248 0,-0.1998717 0,-0.2946972 -0.00454,-0.037476 -0.014195,-0.059621 -0.00909,-0.022145 -0.027823,-0.036908 -0.034069,-0.030094 -0.1022072,-0.030094 h -0.022145 v -0.021009 h 0.4996792 v 0.021009 h -0.022145 q -0.073249,0 -0.1084532,0.035205 -0.035205,0.035205 -0.035205,0.1090209 v 0.4616355 q 0,0.073248 0.035205,0.10902101 0.035772,0.035205 0.1084532,0.035205 h 0.022145 v 0.022145 H 1.2791753 Z"
     id="path395"
     style="font-size:1.16289px;font-family:'Engravers MT';-inkscape-font-specification:'Engravers MT';text-align:end;text-anchor:end;fill:#093d00;fill-opacity:1;stroke-width:0.00181701;paint-order:markers fill stroke" />
  <path
     d="m 1.8776548,0.26458609 h 0.3185456 l 0.5513506,0.5712243 v -0.341826 q 0,-0.06246 -0.021577,-0.109021 -0.021009,-0.047129 -0.061324,-0.071545 -0.021577,-0.013628 -0.043722,-0.019306 -0.021577,-0.00568 -0.060756,-0.00852 v -0.021009 h 0.3929297 v 0.021009 h -0.00795 q -0.08574,0 -0.130598,0.05451 -0.044858,0.05451 -0.044858,0.158421 V 1.0657729 H 2.7509583 L 2.0661702,0.36225069 v 0.4712884 q 0,0.068706 0.016467,0.1101566 0.016467,0.040883 0.053375,0.064163 0.030094,0.01817 0.073249,0.023281 0.023848,0.00397 0.068138,0.00568 v 0.021009 H 1.8634603 v -0.021009 q 0.063596,-0.00341 0.1033428,-0.022145 0.040315,-0.019306 0.059053,-0.056782 0.019306,-0.037476 0.019306,-0.093122 v -0.4485757 q 0,-0.041451 -0.018738,-0.070409 -0.01817,-0.028959 -0.053375,-0.04429 -0.035205,-0.015899 -0.085173,-0.015899 h -0.010221 z"
     id="path397"
     style="font-size:1.16289px;font-family:'Engravers MT';-inkscape-font-specification:'Engravers MT';text-align:end;text-anchor:end;fill:#093d00;fill-opacity:1;stroke-width:0.00181701;paint-order:markers fill stroke" />
  <path
     d="m 3.5185782,0.60514589 h 0.013971 q -0.00958,0.035526 -0.021156,0.059076 -0.011576,0.02355 -0.031933,0.049097 -0.08103,0.099791 -0.2167453,0.099791 -0.085421,0 -0.1592658,-0.039517 -0.073845,-0.039916 -0.1173538,-0.1069756 -0.043509,-0.067458 -0.043509,-0.1452952 0,-0.046303 0.017164,-0.091807 0.017164,-0.045904 0.049895,-0.085421 0.03313,-0.039916 0.076639,-0.068257 0.065862,-0.043109 0.152081,-0.043109 0.02874,0 0.054286,0.00519 0.025946,0.00479 0.048698,0.015967 0.023151,0.010777 0.0475,0.02874 0.027143,0.01876 0.039916,0.01876 0.028341,0 0.071051,-0.059076 h 0.013971 l 0.011576,0.2682371 h -0.013172 q -0.00679,-0.029139 -0.013172,-0.0475 -0.00599,-0.018362 -0.016366,-0.03832 -0.027542,-0.056282 -0.065063,-0.096597 -0.037521,-0.040315 -0.081828,-0.061471 -0.044307,-0.021155 -0.091009,-0.021155 -0.055883,0 -0.091009,0.029937 -0.035126,0.029538 -0.05229,0.092606 -0.016765,0.062668 -0.016765,0.1596651 0,0.055882 0.00599,0.098992 0.00599,0.043109 0.018361,0.073047 0.012773,0.029538 0.031933,0.049496 0.023551,0.02395 0.05708,0.036723 0.033929,0.012374 0.073845,0.012374 0.037122,0 0.071051,-0.00958 0.034328,-0.00958 0.063866,-0.028341 0.029937,-0.01916 0.054685,-0.047101 0.019958,-0.023151 0.032332,-0.046303 0.012374,-0.02355 0.024748,-0.06187 z"
     id="path399"
     style="font-size:1.16289px;font-family:'Engravers MT';-inkscape-font-specification:'Engravers MT';text-align:end;text-anchor:end;fill:#093d00;fill-opacity:1;stroke-width:0.00127732;paint-order:markers fill stroke" />
  <path
     d="m 3.6079906,0.24390379 h 0.5931555 v 0.2159469 h -0.011975 q -0.016366,-0.056681 -0.029538,-0.084622 -0.012773,-0.028341 -0.03353,-0.053488 -0.025147,-0.029937 -0.054685,-0.04271 -0.049097,-0.020358 -0.1193496,-0.020358 H 3.842299 v 0.2650439 h 0.029538 q 0.065862,0 0.1045806,-0.056681 0.019958,-0.029139 0.029538,-0.069454 0.00479,-0.017164 0.00878,-0.050694 h 0.013971 v 0.3656328 h -0.013971 q -0.00479,-0.029538 -0.011576,-0.055484 -0.00639,-0.026345 -0.014769,-0.04271 -0.00798,-0.016366 -0.020757,-0.032731 -0.035925,-0.044307 -0.1021856,-0.044307 H 3.842297 v 0.2494766 h 0.091807 q 0.040715,0 0.073047,-0.00559 0.032731,-0.00599 0.058677,-0.017963 0.025946,-0.012374 0.048698,-0.031933 0.039118,-0.033131 0.060673,-0.082627 0.012374,-0.02834 0.025945,-0.076639 h 0.014769 v 0.2295184 H 3.6087889 l -7.985e-4,-0.014769 h 0.015168 q 0.1013872,0 0.1013872,-0.1021856 v -0.324517 q 0,-0.051891 -0.024748,-0.076639 -0.024748,-0.024748 -0.076639,-0.024748 h -0.015168 z"
     id="path401"
     style="font-size:1.16289px;font-family:'Engravers MT';-inkscape-font-specification:'Engravers MT';text-align:end;text-anchor:end;fill:#093d00;fill-opacity:1;stroke-width:0.00127732;paint-order:markers fill stroke" />
  <path
     d="m 4.2823109,0.52916849 h 0.1105109 l 0.1912764,0.198171 v -0.1185874 q 0,-0.021669 -0.00749,-0.037822 -0.00729,-0.01635 -0.021275,-0.024821 -0.00749,-0.00473 -0.015168,-0.0067 -0.00749,-0.00197 -0.021078,-0.00296 v -0.00729 h 0.1363213 v 0.00729 h -0.00276 q -0.029745,0 -0.045307,0.018911 -0.015562,0.018911 -0.015562,0.05496 v 0.1967921 h -0.0065 L 4.3477113,0.56305059 v 0.1635009 q 0,0.023836 0.00571,0.038216 0.00571,0.014183 0.018517,0.02226 0.01044,0.0063 0.025412,0.00808 0.00827,0.00138 0.023638,0.00197 v 0.00729 H 4.2773864 v -0.00729 q 0.022063,-0.00118 0.035852,-0.00768 0.013986,-0.0067 0.020487,-0.019699 0.0067,-0.013001 0.0067,-0.032306 v -0.1556214 q 0,-0.01438 -0.0065,-0.024427 -0.0063,-0.010047 -0.018517,-0.015365 -0.012213,-0.00552 -0.029549,-0.00552 h -0.00355 z"
     id="path403"
     style="font-size:1.16289px;font-family:'Engravers MT';-inkscape-font-specification:'Engravers MT';text-align:end;text-anchor:end;fill:#093d00;fill-opacity:1;stroke-width:0.000630365;paint-order:markers fill stroke" />
  <path
     d="M 4.6764859,0.52916849 H 4.999154 v 0.1396653 l -0.0063,3.955e-4 q -0.00493,-0.052401 -0.031518,-0.090026 -0.031518,-0.042747 -0.079978,-0.042747 h -0.01438 v 0.2101873 q 0,0.050035 0.049838,0.050035 h 0.041565 v 0.00768 H 4.718054 v -0.00768 h 0.041171 q 0.050035,0 0.050035,-0.050035 V 0.53645619 H 4.791531 q -0.049247,0 -0.079978,0.046095 -0.015168,0.022654 -0.023048,0.053975 -0.00256,0.010638 -0.00512,0.032306 h -0.00689 z"
     id="path405"
     style="font-size:1.16289px;font-family:'Engravers MT';-inkscape-font-specification:'Engravers MT';text-align:end;text-anchor:end;fill:#093d00;fill-opacity:1;stroke-width:0.000630365;paint-order:markers fill stroke" />
  <rect
     style="fill:#793000;fill-opacity:1;stroke-width:0.00200006;paint-order:markers fill stroke;stop-color:#000000"
     id="rect474"
     width="2.1166666"
     height="0.13229178"
     x="2.9531009"
     y="0.92604172"
     ry="0.066145889" />
  <rect
     style="fill:#20004c;fill-opacity:1;stroke-width:0.00122478;paint-order:markers fill stroke;stop-color:#000000"
     id="rect476"
     width="0.79374993"
     height="0.13229178"
     x="4.2760177"
     y="0.26458335"
     ry="0.066145889" />
  <rect
     style="fill:#20004c;fill-opacity:1;stroke-width:0.00302686;paint-order:markers fill stroke;stop-color:#000000"
     id="rect478"
     width="4.8478684"
     height="0.13229178"
     x="0.22189912"
     y="1.190625"
     ry="0.066145889" />
  <rect
     style="fill:#793000;fill-opacity:1;stroke-width:0.00302686;paint-order:markers fill stroke;stop-color:#000000"
     id="rect480"
     width="4.8478684"
     height="0.13229178"
     x="0.22189912"
     y="0"
     ry="0.066145889" />
</svg>
